<svg xmlns="http://www.w3.org/2000/svg" width="22.1" height="26" viewBox="0 0 22.1 26"><defs><style>.a{fill:#005c8b;}</style></defs><path class="a" d="M18.2,26H3.9A3.9,3.9,0,0,1,0,22.1V7.8A3.9,3.9,0,0,1,3.9,3.9H7.15a3.9,3.9,0,0,1,7.8,0H18.2a3.9,3.9,0,0,1,3.9,3.9V22.1A3.9,3.9,0,0,1,18.2,26ZM3.9,5.2A2.6,2.6,0,0,0,1.3,7.8V22.1a2.6,2.6,0,0,0,2.6,2.6H18.2a2.6,2.6,0,0,0,2.6-2.6V7.8a2.6,2.6,0,0,0-2.6-2.6H16.9V9.1H5.2V5.2Zm2.6,0V7.8h9.1V5.2ZM11.05,1.3a2.6,2.6,0,0,0-2.6,2.6h5.2a2.6,2.6,0,0,0-2.6-2.6ZM15.6,20.8H3.9V19.5H15.6v1.3Zm2.6-3.9H3.9V15.6H18.2v1.3Zm0-3.9H3.9V11.7H18.2V13Z" transform="translate(0 0)"/></svg>