<svg xmlns="http://www.w3.org/2000/svg" width="26" height="26" viewBox="0 0 26 26"><defs><style>.a{fill:#005c8b;}</style></defs><path class="a" d="M9.579,26a1.37,1.37,0,0,1-1.368-1.368v-4.1H4.1A4.11,4.11,0,0,1,0,16.421V4.1A4.11,4.11,0,0,1,4.1,0H21.9A4.11,4.11,0,0,1,26,4.1V16.421a4.11,4.11,0,0,1-4.1,4.106H15.619L10.546,25.6A1.358,1.358,0,0,1,9.579,26ZM4.1,1.368A2.74,2.74,0,0,0,1.368,4.1V16.421A2.74,2.74,0,0,0,4.1,19.159H9.579v5.473l5.473-5.473H21.9a2.74,2.74,0,0,0,2.737-2.738V4.1A2.74,2.74,0,0,0,21.9,1.368Zm9.579,15.052H12.316V13.684h1.368v2.735Zm0-5.473H12.316V4.1h1.368v6.841Z" transform="translate(0 0)"/></svg>