<svg xmlns="http://www.w3.org/2000/svg" width="26.225" height="26" viewBox="0 0 26.225 26"><defs><style>.a{fill:#005c8b;}</style></defs><path class="a" d="M12.316,26H4.1A4.11,4.11,0,0,1,0,21.9V4.1A4.11,4.11,0,0,1,4.1,0h8.211a4.11,4.11,0,0,1,4.1,4.1V9.579H15.052V4.1a2.74,2.74,0,0,0-2.737-2.737H4.1A2.74,2.74,0,0,0,1.368,4.1V21.9A2.74,2.74,0,0,0,4.1,24.632h8.211A2.74,2.74,0,0,0,15.052,21.9V16.421h1.368V21.9A4.11,4.11,0,0,1,12.316,26Zm7.752-6.841h0l-.908-1.026,4.447-4.447H8.211V12.316H23.606L19.159,7.869l.909-1.026L26.225,13l-6.157,6.157Z" transform="translate(0 0)"/></svg>